<svg width="676" height="669" viewBox="0 0 676 669" fill="none" xmlns="http://www.w3.org/2000/svg">
<rect width="675.548" height="668.963" fill="#272998"/>
<path d="M437.14 441.902L0.229614 433.394V669.116H676.865V526.982L637.829 482.941V128.107L511.71 100.081V131.611L435.639 117.598L437.14 441.902Z" fill="#006BC3"/>
<path d="M17.7452 480.438H0L-2.42211e-05 512.469L67.2918 497.955L675.864 529.985V422.884H514.712L511.709 100.081L469.169 107.588V422.884H437.64L435.638 117.598L393.598 124.104V422.884H333.042L393.598 466.425V480.438H224.94C209.259 463.589 165.384 429.891 115.337 429.891C65.2899 429.891 29.4229 463.589 17.7452 480.438Z" fill="#51D6D3"/>
<path d="M96.6409 211.397C94.0473 211.397 91.6125 210.974 89.3365 210.127C87.0605 209.253 85.0889 208.009 83.4216 206.395C83.0246 205.998 82.8261 205.548 82.8261 205.045C82.8261 204.463 83.0907 203.907 83.6201 203.378C84.0435 202.955 84.5066 202.743 85.0095 202.743C85.5388 202.743 86.1739 203.047 86.915 203.656C88.1588 204.794 89.6277 205.68 91.3214 206.316C93.0417 206.924 94.8148 207.229 96.6409 207.229C98.3876 207.229 99.7506 206.938 100.73 206.355C101.709 205.747 102.199 204.9 102.199 203.815C102.199 202.677 101.669 201.764 100.611 201.076C99.5521 200.361 97.7525 199.726 95.2118 199.17C91.2156 198.297 88.3044 197.145 86.4783 195.716C84.6787 194.287 83.7788 192.448 83.7788 190.198C83.7788 188.769 84.2552 187.499 85.208 186.387C86.1607 185.249 87.484 184.376 89.1777 183.767C90.898 183.132 92.8564 182.815 95.053 182.815C97.5143 182.815 99.6977 183.225 101.603 184.045C103.535 184.839 105.004 185.964 106.01 187.42C106.354 187.975 106.526 188.452 106.526 188.849C106.499 189.51 106.168 190.079 105.533 190.556C105.189 190.794 104.792 190.913 104.342 190.913C103.522 190.913 102.847 190.595 102.318 189.96C101.55 189.034 100.518 188.306 99.2213 187.777C97.951 187.247 96.5615 186.983 95.053 186.983C93.174 186.983 91.7052 187.274 90.6466 187.856C89.6144 188.412 89.0983 189.193 89.0983 190.198C89.0983 191.204 89.6012 192.038 90.6069 192.699C91.639 193.334 93.4122 193.943 95.9264 194.525C98.7052 195.187 100.942 195.941 102.635 196.788C104.329 197.609 105.56 198.588 106.327 199.726C107.121 200.864 107.518 202.227 107.518 203.815C107.518 205.323 107.068 206.66 106.168 207.824C105.269 208.962 103.998 209.849 102.357 210.484C100.717 211.093 98.8111 211.397 96.6409 211.397ZM117.914 211C115.902 211 114.341 210.471 113.229 209.412C112.118 208.353 111.562 206.871 111.562 204.966V189.087C111.562 187.234 112.091 185.792 113.15 184.76C114.235 183.728 115.73 183.212 117.636 183.212H129.982C130.776 183.212 131.384 183.397 131.808 183.767C132.231 184.111 132.443 184.614 132.443 185.276C132.443 185.911 132.218 186.414 131.768 186.784C131.345 187.128 130.749 187.3 129.982 187.3H118.549C118.02 187.3 117.596 187.472 117.278 187.816C116.987 188.161 116.842 188.637 116.842 189.246V194.764H126.965C127.759 194.764 128.367 194.949 128.791 195.319C129.214 195.663 129.426 196.166 129.426 196.828C129.426 197.463 129.201 197.966 128.751 198.336C128.328 198.68 127.732 198.852 126.965 198.852H116.842V204.966C116.842 205.575 116.987 206.051 117.278 206.395C117.596 206.739 118.02 206.911 118.549 206.911H130.855C131.649 206.911 132.258 207.096 132.681 207.467C133.105 207.811 133.316 208.314 133.316 208.975C133.316 209.611 133.091 210.113 132.642 210.484C132.218 210.828 131.623 211 130.855 211H117.914ZM139.803 211.397C139.009 211.397 138.374 211.185 137.897 210.762C137.421 210.338 137.183 209.756 137.183 209.015V194.049C137.183 190.529 138.281 187.777 140.478 185.792C142.674 183.807 145.718 182.815 149.608 182.815C153.498 182.815 156.542 183.807 158.738 185.792C160.935 187.777 162.033 190.529 162.033 194.049V209.015C162.033 209.756 161.795 210.338 161.319 210.762C160.842 211.185 160.207 211.397 159.413 211.397C158.619 211.397 157.971 211.185 157.468 210.762C156.992 210.312 156.754 209.73 156.754 209.015V193.93C156.754 191.68 156.145 189.96 154.928 188.769C153.71 187.578 151.937 186.983 149.608 186.983C147.279 186.983 145.506 187.578 144.288 188.769C143.071 189.96 142.462 191.68 142.462 193.93V209.015C142.462 209.73 142.211 210.312 141.708 210.762C141.232 211.185 140.597 211.397 139.803 211.397ZM176.032 211.397C175.238 211.397 174.602 211.185 174.126 210.762C173.65 210.338 173.411 209.756 173.411 209.015V187.3H165.75C164.982 187.3 164.374 187.128 163.924 186.784C163.5 186.414 163.289 185.911 163.289 185.276C163.289 184.614 163.5 184.111 163.924 183.767C164.347 183.397 164.956 183.212 165.75 183.212H186.353C187.147 183.212 187.756 183.397 188.179 183.767C188.602 184.111 188.814 184.614 188.814 185.276C188.814 185.911 188.589 186.414 188.139 186.784C187.716 187.128 187.12 187.3 186.353 187.3H178.691V209.015C178.691 209.73 178.44 210.312 177.937 210.762C177.461 211.185 176.825 211.397 176.032 211.397ZM195.893 211.397C195.099 211.397 194.464 211.185 193.987 210.762C193.511 210.338 193.273 209.756 193.273 209.015V185.196C193.273 184.455 193.511 183.873 193.987 183.45C194.464 183.026 195.099 182.815 195.893 182.815C196.66 182.815 197.295 183.026 197.798 183.45C198.301 183.873 198.553 184.455 198.553 185.196V209.015C198.553 209.756 198.301 210.338 197.798 210.762C197.295 211.185 196.66 211.397 195.893 211.397ZM206.599 211.397C205.805 211.397 205.17 211.185 204.693 210.762C204.217 210.338 203.979 209.756 203.979 209.015V194.049C203.979 190.529 205.077 187.777 207.274 185.792C209.47 183.807 212.514 182.815 216.404 182.815C220.295 182.815 223.338 183.807 225.535 185.792C227.731 187.777 228.83 190.529 228.83 194.049V209.015C228.83 209.756 228.591 210.338 228.115 210.762C227.639 211.185 227.003 211.397 226.21 211.397C225.416 211.397 224.767 211.185 224.264 210.762C223.788 210.312 223.55 209.73 223.55 209.015V193.93C223.55 191.68 222.941 189.96 221.724 188.769C220.506 187.578 218.733 186.983 216.404 186.983C214.075 186.983 212.302 187.578 211.085 188.769C209.867 189.96 209.259 191.68 209.259 193.93V209.015C209.259 209.73 209.007 210.312 208.504 210.762C208.028 211.185 207.393 211.397 206.599 211.397ZM239.411 211C237.399 211 235.838 210.471 234.726 209.412C233.615 208.353 233.059 206.871 233.059 204.966V189.087C233.059 187.234 233.588 185.792 234.647 184.76C235.732 183.728 237.227 183.212 239.133 183.212H251.479C252.273 183.212 252.881 183.397 253.305 183.767C253.728 184.111 253.94 184.614 253.94 185.276C253.94 185.911 253.715 186.414 253.265 186.784C252.842 187.128 252.246 187.3 251.479 187.3H240.046C239.516 187.3 239.093 187.472 238.775 187.816C238.484 188.161 238.339 188.637 238.339 189.246V194.764H248.462C249.256 194.764 249.864 194.949 250.288 195.319C250.711 195.663 250.923 196.166 250.923 196.828C250.923 197.463 250.698 197.966 250.248 198.336C249.825 198.68 249.229 198.852 248.462 198.852H238.339V204.966C238.339 205.575 238.484 206.051 238.775 206.395C239.093 206.739 239.516 206.911 240.046 206.911H252.352C253.146 206.911 253.755 207.096 254.178 207.467C254.602 207.811 254.813 208.314 254.813 208.975C254.813 209.611 254.588 210.113 254.138 210.484C253.715 210.828 253.12 211 252.352 211H239.411ZM265.23 211C263.218 211 261.657 210.471 260.545 209.412C259.434 208.353 258.878 206.871 258.878 204.966V185.196C258.878 184.455 259.116 183.873 259.593 183.45C260.069 183.026 260.704 182.815 261.498 182.815C262.292 182.815 262.927 183.04 263.404 183.489C263.906 183.913 264.158 184.482 264.158 185.196V204.966C264.158 205.575 264.303 206.051 264.594 206.395C264.912 206.739 265.336 206.911 265.865 206.911H278.568C279.362 206.911 279.971 207.096 280.394 207.467C280.818 207.811 281.029 208.314 281.029 208.975C281.029 209.611 280.804 210.113 280.354 210.484C279.931 210.828 279.336 211 278.568 211H265.23ZM286.692 211.357C285.898 211.357 285.263 211.146 284.787 210.722C284.31 210.299 284.072 209.716 284.072 208.975V195.081C284.072 191.244 285.17 188.24 287.367 186.07C289.564 183.9 292.62 182.815 296.537 182.815C299.104 182.815 301.327 183.304 303.206 184.283C305.085 185.263 306.515 186.678 307.494 188.531C308.5 190.384 309.002 192.567 309.002 195.081V208.975C309.002 209.716 308.764 210.299 308.288 210.722C307.811 211.146 307.176 211.357 306.382 211.357C305.588 211.357 304.94 211.146 304.437 210.722C303.961 210.272 303.723 209.69 303.723 208.975V202.505H289.352V208.975C289.352 209.69 289.101 210.272 288.598 210.722C288.121 211.146 287.486 211.357 286.692 211.357ZM303.723 198.416V194.962C303.723 192.316 303.114 190.331 301.896 189.007C300.706 187.658 298.919 186.983 296.537 186.983C291.747 186.983 289.352 189.643 289.352 194.962V198.416H303.723Z" fill="white"/>
<path d="M118.423 262V240.258H125.101C128.932 240.258 131.748 241.231 133.549 243.178C135.372 245.124 136.283 247.795 136.283 251.191C136.283 254.525 135.372 257.165 133.549 259.111C131.748 261.037 128.932 262 125.101 262H118.423ZM121.032 259.826H125.039C127.151 259.826 128.828 259.484 130.071 258.801C131.334 258.097 132.235 257.103 132.773 255.819C133.311 254.515 133.58 252.972 133.58 251.191C133.58 249.369 133.311 247.806 132.773 246.501C132.235 245.197 131.334 244.192 130.071 243.488C128.828 242.784 127.151 242.432 125.039 242.432H121.032V259.826ZM146.821 262.373C145.351 262.373 144.046 262.041 142.907 261.379C141.769 260.695 140.868 259.753 140.205 258.552C139.563 257.351 139.242 255.933 139.242 254.297C139.242 252.682 139.563 251.274 140.205 250.073C140.847 248.851 141.737 247.909 142.876 247.247C144.036 246.563 145.371 246.222 146.883 246.222C148.374 246.222 149.658 246.563 150.734 247.247C151.832 247.909 152.671 248.789 153.25 249.887C153.83 250.984 154.12 252.164 154.12 253.427C154.12 253.655 154.11 253.883 154.089 254.111C154.089 254.339 154.089 254.597 154.089 254.887H141.82C141.882 256.068 142.152 257.051 142.628 257.838C143.125 258.604 143.736 259.184 144.46 259.577C145.206 259.971 145.993 260.167 146.821 260.167C147.898 260.167 148.798 259.919 149.523 259.422C150.248 258.925 150.776 258.252 151.107 257.403H153.685C153.271 258.832 152.474 260.023 151.294 260.975C150.134 261.907 148.643 262.373 146.821 262.373ZM146.821 248.427C145.579 248.427 144.471 248.81 143.498 249.576C142.545 250.322 141.996 251.419 141.851 252.868H151.542C151.48 251.481 151.004 250.394 150.113 249.607C149.223 248.82 148.125 248.427 146.821 248.427ZM172.818 262.373C171.368 262.373 170.064 262.041 168.904 261.379C167.744 260.716 166.823 259.784 166.14 258.583C165.477 257.362 165.146 255.933 165.146 254.297C165.146 252.661 165.487 251.243 166.171 250.042C166.854 248.82 167.775 247.878 168.935 247.216C170.115 246.553 171.43 246.222 172.88 246.222C174.329 246.222 175.634 246.553 176.793 247.216C177.953 247.878 178.864 248.82 179.526 250.042C180.21 251.243 180.551 252.661 180.551 254.297C180.551 255.933 180.21 257.362 179.526 258.583C178.843 259.784 177.911 260.716 176.731 261.379C175.571 262.041 174.267 262.373 172.818 262.373ZM172.818 260.136C173.708 260.136 174.536 259.919 175.302 259.484C176.068 259.049 176.69 258.397 177.166 257.527C177.642 256.658 177.88 255.581 177.88 254.297C177.88 253.013 177.642 251.937 177.166 251.067C176.71 250.197 176.1 249.545 175.333 249.11C174.567 248.675 173.749 248.458 172.88 248.458C171.989 248.458 171.161 248.675 170.395 249.11C169.629 249.545 169.008 250.197 168.531 251.067C168.055 251.937 167.817 253.013 167.817 254.297C167.817 255.581 168.055 256.658 168.531 257.527C169.008 258.397 169.618 259.049 170.364 259.484C171.13 259.919 171.948 260.136 172.818 260.136ZM184.179 262V239.637H186.788V262H184.179ZM191.064 262V239.637H193.673V249.234C194.191 248.282 194.926 247.547 195.879 247.029C196.831 246.491 197.867 246.222 198.985 246.222C200.765 246.222 202.194 246.781 203.271 247.899C204.348 248.996 204.886 250.694 204.886 252.993V262H202.308V253.272C202.308 250.063 201.014 248.458 198.426 248.458C197.08 248.458 195.951 248.945 195.04 249.918C194.129 250.87 193.673 252.237 193.673 254.018V262H191.064ZM215.858 262.373C214.409 262.373 213.104 262.041 211.945 261.379C210.785 260.716 209.864 259.784 209.181 258.583C208.518 257.362 208.187 255.933 208.187 254.297C208.187 252.661 208.528 251.243 209.212 250.042C209.895 248.82 210.816 247.878 211.976 247.216C213.156 246.553 214.471 246.222 215.921 246.222C217.37 246.222 218.675 246.553 219.834 247.216C220.994 247.878 221.905 248.82 222.567 250.042C223.251 251.243 223.592 252.661 223.592 254.297C223.592 255.933 223.251 257.362 222.567 258.583C221.884 259.784 220.952 260.716 219.772 261.379C218.612 262.041 217.308 262.373 215.858 262.373ZM215.858 260.136C216.749 260.136 217.577 259.919 218.343 259.484C219.109 259.049 219.731 258.397 220.207 257.527C220.683 256.658 220.921 255.581 220.921 254.297C220.921 253.013 220.683 251.937 220.207 251.067C219.751 250.197 219.14 249.545 218.374 249.11C217.608 248.675 216.79 248.458 215.921 248.458C215.03 248.458 214.202 248.675 213.436 249.11C212.67 249.545 212.048 250.197 211.572 251.067C211.096 251.937 210.858 253.013 210.858 254.297C210.858 255.581 211.096 256.658 211.572 257.527C212.048 258.397 212.659 259.049 213.405 259.484C214.171 259.919 214.989 260.136 215.858 260.136ZM235.44 262V246.594H237.801L237.956 249.359C238.453 248.385 239.167 247.619 240.099 247.06C241.031 246.501 242.087 246.222 243.267 246.222C245.089 246.222 246.539 246.781 247.615 247.899C248.713 248.996 249.262 250.694 249.262 252.993V262H246.653V253.272C246.653 250.063 245.327 248.458 242.677 248.458C241.352 248.458 240.244 248.945 239.354 249.918C238.484 250.87 238.049 252.237 238.049 254.018V262H235.44ZM258.339 262.373C257.056 262.373 255.989 262.155 255.14 261.72C254.291 261.286 253.66 260.706 253.246 259.981C252.831 259.256 252.624 258.47 252.624 257.621C252.624 256.047 253.225 254.836 254.426 253.987C255.627 253.138 257.263 252.713 259.333 252.713H263.495V252.527C263.495 251.181 263.143 250.166 262.439 249.483C261.735 248.779 260.793 248.427 259.613 248.427C258.598 248.427 257.718 248.686 256.973 249.203C256.248 249.7 255.792 250.435 255.606 251.409H252.935C253.038 250.29 253.411 249.348 254.053 248.582C254.716 247.816 255.534 247.236 256.507 246.843C257.48 246.429 258.515 246.222 259.613 246.222C261.766 246.222 263.381 246.801 264.458 247.961C265.556 249.1 266.104 250.622 266.104 252.527V262H263.775L263.619 259.236C263.185 260.105 262.543 260.851 261.694 261.472C260.866 262.072 259.747 262.373 258.339 262.373ZM258.743 260.167C259.737 260.167 260.586 259.909 261.29 259.391C262.015 258.873 262.563 258.2 262.936 257.372C263.309 256.544 263.495 255.674 263.495 254.763V254.732H259.551C258.018 254.732 256.931 255.001 256.289 255.54C255.668 256.057 255.358 256.709 255.358 257.496C255.358 258.304 255.647 258.956 256.227 259.453C256.828 259.929 257.666 260.167 258.743 260.167ZM93.7286 297.373C92.2585 297.373 90.9332 297.041 89.753 296.379C88.5934 295.695 87.6719 294.753 86.9886 293.552C86.326 292.331 85.9947 290.912 85.9947 289.297C85.9947 287.682 86.326 286.274 86.9886 285.073C87.6719 283.851 88.5934 282.909 89.753 282.247C90.9332 281.563 92.2585 281.222 93.7286 281.222C95.5508 281.222 97.0831 281.698 98.3255 282.65C99.5886 283.603 100.386 284.876 100.717 286.471H98.0459C97.8389 285.518 97.3316 284.783 96.524 284.265C95.7164 283.727 94.7743 283.458 93.6976 283.458C92.8279 283.458 92.01 283.675 91.2438 284.11C90.4777 284.545 89.8565 285.197 89.3802 286.067C88.904 286.937 88.6659 288.013 88.6659 289.297C88.6659 290.581 88.904 291.658 89.3802 292.527C89.8565 293.397 90.4777 294.06 91.2438 294.515C92.01 294.95 92.8279 295.167 93.6976 295.167C94.7743 295.167 95.7164 294.909 96.524 294.391C97.3316 293.853 97.8389 293.097 98.0459 292.124H100.717C100.406 293.677 99.6196 294.94 98.3565 295.913C97.0934 296.886 95.5508 297.373 93.7286 297.373ZM109.486 297.373C108.202 297.373 107.135 297.155 106.286 296.72C105.438 296.286 104.806 295.706 104.392 294.981C103.978 294.256 103.771 293.47 103.771 292.621C103.771 291.047 104.371 289.836 105.572 288.987C106.773 288.138 108.409 287.713 110.48 287.713H114.642V287.527C114.642 286.181 114.29 285.166 113.586 284.483C112.882 283.779 111.939 283.427 110.759 283.427C109.744 283.427 108.864 283.686 108.119 284.203C107.394 284.7 106.939 285.435 106.752 286.409H104.081C104.185 285.29 104.558 284.348 105.199 283.582C105.862 282.816 106.68 282.236 107.653 281.843C108.626 281.429 109.662 281.222 110.759 281.222C112.913 281.222 114.528 281.801 115.604 282.961C116.702 284.1 117.251 285.622 117.251 287.527V297H114.921L114.766 294.236C114.331 295.105 113.689 295.851 112.84 296.472C112.012 297.072 110.894 297.373 109.486 297.373ZM109.889 295.167C110.883 295.167 111.732 294.909 112.436 294.391C113.161 293.873 113.71 293.2 114.083 292.372C114.455 291.544 114.642 290.674 114.642 289.763V289.732H110.697C109.165 289.732 108.078 290.001 107.436 290.54C106.815 291.057 106.504 291.709 106.504 292.496C106.504 293.304 106.794 293.956 107.374 294.453C107.974 294.929 108.813 295.167 109.889 295.167ZM106.411 279.886V277.836L110.666 275.32L114.921 277.836V279.886L110.666 277.277L106.411 279.886ZM121.165 297V281.594H123.525L123.712 283.831C124.209 283.002 124.871 282.36 125.699 281.905C126.528 281.449 127.459 281.222 128.495 281.222C129.716 281.222 130.762 281.47 131.632 281.967C132.522 282.464 133.206 283.22 133.682 284.234C134.22 283.303 134.955 282.568 135.887 282.029C136.84 281.491 137.864 281.222 138.962 281.222C140.805 281.222 142.275 281.781 143.372 282.899C144.47 283.996 145.019 285.694 145.019 287.993V297H142.441V288.272C142.441 286.678 142.12 285.477 141.478 284.669C140.836 283.862 139.914 283.458 138.713 283.458C137.471 283.458 136.436 283.945 135.607 284.918C134.8 285.87 134.396 287.237 134.396 289.018V297H131.787V288.272C131.787 286.678 131.466 285.477 130.824 284.669C130.182 283.862 129.261 283.458 128.06 283.458C126.838 283.458 125.813 283.945 124.985 284.918C124.177 285.87 123.774 287.237 123.774 289.018V297H121.165ZM154.074 297.373C152.79 297.373 151.723 297.155 150.874 296.72C150.025 296.286 149.394 295.706 148.98 294.981C148.566 294.256 148.359 293.47 148.359 292.621C148.359 291.047 148.959 289.836 150.16 288.987C151.361 288.138 152.997 287.713 155.067 287.713H159.229V287.527C159.229 286.181 158.877 285.166 158.173 284.483C157.469 283.779 156.527 283.427 155.347 283.427C154.332 283.427 153.452 283.686 152.707 284.203C151.982 284.7 151.527 285.435 151.34 286.409H148.669C148.773 285.29 149.145 284.348 149.787 283.582C150.45 282.816 151.268 282.236 152.241 281.843C153.214 281.429 154.25 281.222 155.347 281.222C157.5 281.222 159.116 281.801 160.192 282.961C161.29 284.1 161.838 285.622 161.838 287.527V297H159.509L159.354 294.236C158.919 295.105 158.277 295.851 157.428 296.472C156.6 297.072 155.482 297.373 154.074 297.373ZM154.477 295.167C155.471 295.167 156.32 294.909 157.024 294.391C157.749 293.873 158.298 293.2 158.67 292.372C159.043 291.544 159.229 290.674 159.229 289.763V289.732H155.285C153.753 289.732 152.665 290.001 152.024 290.54C151.402 291.057 151.092 291.709 151.092 292.496C151.092 293.304 151.382 293.956 151.961 294.453C152.562 294.929 153.401 295.167 154.477 295.167ZM165.752 297V281.594H168.113L168.33 284.545C168.807 283.53 169.531 282.723 170.505 282.122C171.478 281.522 172.679 281.222 174.108 281.222V283.955H173.393C172.482 283.955 171.644 284.121 170.877 284.452C170.111 284.762 169.5 285.301 169.045 286.067C168.589 286.833 168.362 287.889 168.362 289.235V297H165.752ZM182.161 297.373C180.877 297.373 179.811 297.155 178.962 296.72C178.113 296.286 177.481 295.706 177.067 294.981C176.653 294.256 176.446 293.47 176.446 292.621C176.446 291.047 177.046 289.836 178.247 288.987C179.448 288.138 181.084 287.713 183.155 287.713H187.317V287.527C187.317 286.181 186.965 285.166 186.261 284.483C185.557 283.779 184.615 283.427 183.434 283.427C182.42 283.427 181.54 283.686 180.794 284.203C180.069 284.7 179.614 285.435 179.428 286.409H176.756C176.86 285.29 177.233 284.348 177.875 283.582C178.537 282.816 179.355 282.236 180.328 281.843C181.302 281.429 182.337 281.222 183.434 281.222C185.588 281.222 187.203 281.801 188.28 282.961C189.377 284.1 189.926 285.622 189.926 287.527V297H187.596L187.441 294.236C187.006 295.105 186.364 295.851 185.515 296.472C184.687 297.072 183.569 297.373 182.161 297.373ZM182.565 295.167C183.559 295.167 184.407 294.909 185.112 294.391C185.836 293.873 186.385 293.2 186.758 292.372C187.13 291.544 187.317 290.674 187.317 289.763V289.732H183.372C181.84 289.732 180.753 290.001 180.111 290.54C179.49 291.057 179.179 291.709 179.179 292.496C179.179 293.304 179.469 293.956 180.049 294.453C180.649 294.929 181.488 295.167 182.565 295.167ZM202.898 297V283.8H200.569V281.594H202.898V278.923C202.898 277.432 203.271 276.345 204.017 275.662C204.762 274.979 205.849 274.637 207.278 274.637H208.831V276.873H207.682C206.895 276.873 206.336 277.039 206.004 277.37C205.673 277.681 205.507 278.219 205.507 278.985V281.594H209.297V283.8H205.507V297H202.898ZM218.723 297.373C217.252 297.373 215.948 297.041 214.809 296.379C213.67 295.695 212.769 294.753 212.107 293.552C211.465 292.351 211.144 290.933 211.144 289.297C211.144 287.682 211.465 286.274 212.107 285.073C212.749 283.851 213.639 282.909 214.778 282.247C215.938 281.563 217.273 281.222 218.785 281.222C220.276 281.222 221.559 281.563 222.636 282.247C223.734 282.909 224.572 283.789 225.152 284.887C225.732 285.984 226.022 287.164 226.022 288.427C226.022 288.655 226.011 288.883 225.991 289.111C225.991 289.339 225.991 289.597 225.991 289.887H213.722C213.784 291.068 214.053 292.051 214.53 292.838C215.027 293.604 215.637 294.184 216.362 294.577C217.108 294.971 217.894 295.167 218.723 295.167C219.799 295.167 220.7 294.919 221.425 294.422C222.15 293.925 222.678 293.252 223.009 292.403H225.587C225.173 293.832 224.376 295.023 223.195 295.975C222.036 296.907 220.545 297.373 218.723 297.373ZM218.723 283.427C217.48 283.427 216.372 283.81 215.399 284.576C214.447 285.322 213.898 286.419 213.753 287.868H223.444C223.382 286.481 222.905 285.394 222.015 284.607C221.125 283.82 220.027 283.427 218.723 283.427ZM236.468 297.373C234.936 297.373 233.59 297.021 232.43 296.317C231.292 295.613 230.401 294.65 229.759 293.428C229.138 292.206 228.828 290.819 228.828 289.266C228.828 287.713 229.148 286.336 229.79 285.135C230.432 283.913 231.323 282.961 232.462 282.278C233.6 281.574 234.946 281.222 236.499 281.222C237.762 281.222 238.881 281.48 239.854 281.998C240.827 282.516 241.583 283.24 242.121 284.172V274.637H244.73V297H242.37L242.121 294.453C241.624 295.199 240.91 295.871 239.978 296.472C239.046 297.072 237.876 297.373 236.468 297.373ZM236.748 295.105C237.783 295.105 238.694 294.867 239.481 294.391C240.289 293.894 240.91 293.211 241.345 292.341C241.8 291.471 242.028 290.457 242.028 289.297C242.028 288.138 241.8 287.123 241.345 286.253C240.91 285.384 240.289 284.711 239.481 284.234C238.694 283.737 237.783 283.489 236.748 283.489C235.733 283.489 234.822 283.737 234.015 284.234C233.228 284.711 232.606 285.384 232.151 286.253C231.716 287.123 231.499 288.138 231.499 289.297C231.499 290.457 231.716 291.471 232.151 292.341C232.606 293.211 233.228 293.894 234.015 294.391C234.822 294.867 235.733 295.105 236.748 295.105ZM255.91 297.373C254.439 297.373 253.135 297.041 251.996 296.379C250.857 295.695 249.956 294.753 249.294 293.552C248.652 292.351 248.331 290.933 248.331 289.297C248.331 287.682 248.652 286.274 249.294 285.073C249.936 283.851 250.826 282.909 251.965 282.247C253.124 281.563 254.46 281.222 255.972 281.222C257.462 281.222 258.746 281.563 259.823 282.247C260.92 282.909 261.759 283.789 262.339 284.887C262.919 285.984 263.209 287.164 263.209 288.427C263.209 288.655 263.198 288.883 263.178 289.111C263.178 289.339 263.178 289.597 263.178 289.887H250.909C250.971 291.068 251.24 292.051 251.716 292.838C252.213 293.604 252.824 294.184 253.549 294.577C254.294 294.971 255.081 295.167 255.91 295.167C256.986 295.167 257.887 294.919 258.612 294.422C259.336 293.925 259.864 293.252 260.196 292.403H262.774C262.36 293.832 261.562 295.023 260.382 295.975C259.223 296.907 257.732 297.373 255.91 297.373ZM255.91 283.427C254.667 283.427 253.559 283.81 252.586 284.576C251.634 285.322 251.085 286.419 250.94 287.868H260.631C260.568 286.481 260.092 285.394 259.202 284.607C258.311 283.82 257.214 283.427 255.91 283.427ZM266.667 297V281.594H269.027L269.245 284.545C269.721 283.53 270.446 282.723 271.419 282.122C272.392 281.522 273.593 281.222 275.022 281.222V283.955H274.307C273.396 283.955 272.558 284.121 271.792 284.452C271.025 284.762 270.415 285.301 269.959 286.067C269.503 286.833 269.276 287.889 269.276 289.235V297H266.667ZM283.075 297.373C281.791 297.373 280.725 297.155 279.876 296.72C279.027 296.286 278.395 295.706 277.981 294.981C277.567 294.256 277.36 293.47 277.36 292.621C277.36 291.047 277.96 289.836 279.161 288.987C280.362 288.138 281.998 287.713 284.069 287.713H288.231V287.527C288.231 286.181 287.879 285.166 287.175 284.483C286.471 283.779 285.529 283.427 284.348 283.427C283.334 283.427 282.454 283.686 281.708 284.203C280.984 284.7 280.528 285.435 280.342 286.409H277.671C277.774 285.29 278.147 284.348 278.789 283.582C279.451 282.816 280.269 282.236 281.242 281.843C282.216 281.429 283.251 281.222 284.348 281.222C286.502 281.222 288.117 281.801 289.194 282.961C290.291 284.1 290.84 285.622 290.84 287.527V297H288.51L288.355 294.236C287.92 295.105 287.278 295.851 286.429 296.472C285.601 297.072 284.483 297.373 283.075 297.373ZM283.479 295.167C284.473 295.167 285.322 294.909 286.026 294.391C286.75 293.873 287.299 293.2 287.672 292.372C288.045 291.544 288.231 290.674 288.231 289.763V289.732H284.286C282.754 289.732 281.667 290.001 281.025 290.54C280.404 291.057 280.093 291.709 280.093 292.496C280.093 293.304 280.383 293.956 280.963 294.453C281.563 294.929 282.402 295.167 283.479 295.167ZM294.754 297V274.637H297.363V297H294.754Z" fill="white"/>
</svg>
