<svg width="65" height="62" viewBox="0 0 65 62" fill="none" xmlns="http://www.w3.org/2000/svg">
<path d="M4.40113 58.8456C3.67133 58.8456 2.98621 58.7264 2.34578 58.4881C1.70534 58.2424 1.15055 57.8924 0.681393 57.4381C0.569689 57.3264 0.513837 57.1998 0.513837 57.0583C0.513837 56.8945 0.588306 56.7381 0.737244 56.5892C0.856395 56.47 0.986716 56.4104 1.12821 56.4104C1.27715 56.4104 1.45587 56.4961 1.66439 56.6674C2.01439 56.9876 2.42769 57.2371 2.9043 57.4158C3.38835 57.5871 3.88729 57.6727 4.40113 57.6727C4.89262 57.6727 5.27614 57.5908 5.55167 57.427C5.82721 57.2557 5.96498 57.0174 5.96498 56.712C5.96498 56.3918 5.81604 56.1349 5.51816 55.9413C5.22029 55.7402 4.7139 55.5615 3.99899 55.4051C2.87451 55.1594 2.05535 54.8354 1.54151 54.4333C1.03512 54.0312 0.781926 53.5136 0.781926 52.8806C0.781926 52.4785 0.91597 52.121 1.18406 51.8083C1.45215 51.488 1.82449 51.2423 2.3011 51.071C2.78515 50.8923 3.33622 50.8029 3.95431 50.8029C4.64687 50.8029 5.26125 50.9184 5.79742 51.1492C6.34105 51.3726 6.75435 51.6891 7.03733 52.0987C7.13414 52.2551 7.18255 52.3891 7.18255 52.5008C7.1751 52.687 7.08202 52.8471 6.90329 52.9811C6.80648 53.0482 6.69478 53.0817 6.56818 53.0817C6.33732 53.0817 6.14743 52.9923 5.99849 52.8136C5.78253 52.5529 5.4921 52.3482 5.1272 52.1992C4.76975 52.0503 4.37879 51.9758 3.95431 51.9758C3.42558 51.9758 3.01228 52.0577 2.7144 52.2216C2.42397 52.3779 2.27876 52.5976 2.27876 52.8806C2.27876 53.1636 2.42025 53.3982 2.70323 53.5843C2.99366 53.7631 3.4926 53.9344 4.20006 54.0982C4.98199 54.2844 5.61125 54.4966 6.08785 54.7349C6.56445 54.9657 6.91074 55.2413 7.1267 55.5615C7.3501 55.8817 7.46181 56.2652 7.46181 56.712C7.46181 57.1365 7.33521 57.5126 7.08202 57.8403C6.82882 58.1605 6.47137 58.4099 6.00966 58.5887C5.54795 58.76 5.01177 58.8456 4.40113 58.8456ZM10.387 58.7339C9.821 58.7339 9.38163 58.5849 9.06886 58.2871C8.75609 57.9892 8.5997 57.5722 8.5997 57.036V52.5678C8.5997 52.0466 8.74864 51.6407 9.04652 51.3503C9.35184 51.0598 9.77259 50.9146 10.3088 50.9146H13.7828C14.0062 50.9146 14.1774 50.9668 14.2966 51.071C14.4157 51.1678 14.4753 51.3093 14.4753 51.4955C14.4753 51.6742 14.412 51.8157 14.2854 51.92C14.1663 52.0168 13.9987 52.0652 13.7828 52.0652H10.5657C10.4167 52.0652 10.2976 52.1136 10.2082 52.2104C10.1263 52.3072 10.0854 52.4412 10.0854 52.6125V54.1652H12.9338C13.1572 54.1652 13.3285 54.2173 13.4476 54.3216C13.5668 54.4184 13.6264 54.5599 13.6264 54.7461C13.6264 54.9248 13.5631 55.0663 13.4365 55.1705C13.3173 55.2673 13.1498 55.3158 12.9338 55.3158H10.0854V57.036C10.0854 57.2073 10.1263 57.3413 10.2082 57.4381C10.2976 57.5349 10.4167 57.5833 10.5657 57.5833H14.0285C14.2519 57.5833 14.4232 57.6355 14.5423 57.7397C14.6615 57.8365 14.7211 57.978 14.7211 58.1642C14.7211 58.3429 14.6578 58.4844 14.5312 58.5887C14.412 58.6855 14.2445 58.7339 14.0285 58.7339H10.387ZM16.5462 58.8456C16.3228 58.8456 16.1441 58.786 16.01 58.6669C15.876 58.5477 15.809 58.3839 15.809 58.1754V53.9641C15.809 52.9737 16.118 52.1992 16.7361 51.6407C17.3542 51.0822 18.2106 50.8029 19.3053 50.8029C20.4 50.8029 21.2564 51.0822 21.8745 51.6407C22.4926 52.1992 22.8016 52.9737 22.8016 53.9641V58.1754C22.8016 58.3839 22.7346 58.5477 22.6005 58.6669C22.4665 58.786 22.2878 58.8456 22.0644 58.8456C21.841 58.8456 21.6585 58.786 21.517 58.6669C21.383 58.5403 21.3159 58.3764 21.3159 58.1754V53.9306C21.3159 53.2976 21.1447 52.8136 20.8021 52.4785C20.4596 52.1434 19.9606 51.9758 19.3053 51.9758C18.65 51.9758 18.151 52.1434 17.8085 52.4785C17.4659 52.8136 17.2946 53.2976 17.2946 53.9306V58.1754C17.2946 58.3764 17.2239 58.5403 17.0824 58.6669C16.9483 58.786 16.7696 58.8456 16.5462 58.8456ZM26.7405 58.8456C26.5171 58.8456 26.3383 58.786 26.2043 58.6669C26.0702 58.5477 26.0032 58.3839 26.0032 58.1754V52.0652H23.8473C23.6314 52.0652 23.4601 52.0168 23.3335 51.92C23.2144 51.8157 23.1548 51.6742 23.1548 51.4955C23.1548 51.3093 23.2144 51.1678 23.3335 51.071C23.4527 50.9668 23.6239 50.9146 23.8473 50.9146H29.6448C29.8682 50.9146 30.0395 50.9668 30.1586 51.071C30.2778 51.1678 30.3373 51.3093 30.3373 51.4955C30.3373 51.6742 30.274 51.8157 30.1474 51.92C30.0283 52.0168 29.8607 52.0652 29.6448 52.0652H27.4889V58.1754C27.4889 58.3764 27.4181 58.5403 27.2766 58.6669C27.1426 58.786 26.9639 58.8456 26.7405 58.8456ZM32.3291 58.8456C32.1057 58.8456 31.927 58.786 31.793 58.6669C31.6589 58.5477 31.5919 58.3839 31.5919 58.1754V51.4731C31.5919 51.2646 31.6589 51.1008 31.793 50.9816C31.927 50.8625 32.1057 50.8029 32.3291 50.8029C32.5451 50.8029 32.7238 50.8625 32.8653 50.9816C33.0068 51.1008 33.0776 51.2646 33.0776 51.4731V58.1754C33.0776 58.3839 33.0068 58.5477 32.8653 58.6669C32.7238 58.786 32.5451 58.8456 32.3291 58.8456ZM35.3417 58.8456C35.1183 58.8456 34.9395 58.786 34.8055 58.6669C34.6714 58.5477 34.6044 58.3839 34.6044 58.1754V53.9641C34.6044 52.9737 34.9135 52.1992 35.5316 51.6407C36.1496 51.0822 37.006 50.8029 38.1007 50.8029C39.1954 50.8029 40.0518 51.0822 40.6699 51.6407C41.288 52.1992 41.5971 52.9737 41.5971 53.9641V58.1754C41.5971 58.3839 41.53 58.5477 41.396 58.6669C41.262 58.786 41.0832 58.8456 40.8598 58.8456C40.6364 58.8456 40.454 58.786 40.3125 58.6669C40.1784 58.5403 40.1114 58.3764 40.1114 58.1754V53.9306C40.1114 53.2976 39.9401 52.8136 39.5976 52.4785C39.255 52.1434 38.7561 51.9758 38.1007 51.9758C37.4454 51.9758 36.9465 52.1434 36.6039 52.4785C36.2614 52.8136 36.0901 53.2976 36.0901 53.9306V58.1754C36.0901 58.3764 36.0193 58.5403 35.8778 58.6669C35.7438 58.786 35.5651 58.8456 35.3417 58.8456ZM44.5744 58.7339C44.0084 58.7339 43.5691 58.5849 43.2563 58.2871C42.9435 57.9892 42.7871 57.5722 42.7871 57.036V52.5678C42.7871 52.0466 42.9361 51.6407 43.234 51.3503C43.5393 51.0598 43.96 50.9146 44.4962 50.9146H47.9702C48.1936 50.9146 48.3649 50.9668 48.484 51.071C48.6032 51.1678 48.6628 51.3093 48.6628 51.4955C48.6628 51.6742 48.5995 51.8157 48.4729 51.92C48.3537 52.0168 48.1862 52.0652 47.9702 52.0652H44.7531C44.6042 52.0652 44.485 52.1136 44.3957 52.2104C44.3138 52.3072 44.2728 52.4412 44.2728 52.6125V54.1652H47.1213C47.3447 54.1652 47.5159 54.2173 47.6351 54.3216C47.7542 54.4184 47.8138 54.5599 47.8138 54.7461C47.8138 54.9248 47.7505 55.0663 47.6239 55.1705C47.5048 55.2673 47.3372 55.3158 47.1213 55.3158H44.2728V57.036C44.2728 57.2073 44.3138 57.3413 44.3957 57.4381C44.485 57.5349 44.6042 57.5833 44.7531 57.5833H48.2159C48.4394 57.5833 48.6106 57.6355 48.7298 57.7397C48.8489 57.8365 48.9085 57.978 48.9085 58.1642C48.9085 58.3429 48.8452 58.4844 48.7186 58.5887C48.5995 58.6855 48.4319 58.7339 48.2159 58.7339H44.5744ZM51.8395 58.7339C51.2735 58.7339 50.8342 58.5849 50.5214 58.2871C50.2086 57.9892 50.0523 57.5722 50.0523 57.036V51.4731C50.0523 51.2646 50.1193 51.1008 50.2533 50.9816C50.3874 50.8625 50.5661 50.8029 50.7895 50.8029C51.0129 50.8029 51.1916 50.8662 51.3257 50.9928C51.4672 51.112 51.5379 51.2721 51.5379 51.4731V57.036C51.5379 57.2073 51.5789 57.3413 51.6608 57.4381C51.7501 57.5349 51.8693 57.5833 52.0182 57.5833H55.5928C55.8162 57.5833 55.9874 57.6355 56.1066 57.7397C56.2257 57.8365 56.2853 57.978 56.2853 58.1642C56.2853 58.3429 56.222 58.4844 56.0954 58.5887C55.9763 58.6855 55.8087 58.7339 55.5928 58.7339H51.8395ZM57.8788 58.8344C57.6553 58.8344 57.4766 58.7748 57.3426 58.6557C57.2085 58.5365 57.1415 58.3727 57.1415 58.1642V54.2546C57.1415 53.1748 57.4506 52.3295 58.0687 51.7189C58.6867 51.1082 59.5469 50.8029 60.649 50.8029C61.3714 50.8029 61.9969 50.9407 62.5256 51.2162C63.0544 51.4918 63.4565 51.8902 63.732 52.4115C64.015 52.9327 64.1565 53.5471 64.1565 54.2546V58.1642C64.1565 58.3727 64.0895 58.5365 63.9554 58.6557C63.8214 58.7748 63.6427 58.8344 63.4193 58.8344C63.1959 58.8344 63.0134 58.7748 62.8719 58.6557C62.7379 58.5291 62.6708 58.3653 62.6708 58.1642V56.3434H58.6272V58.1642C58.6272 58.3653 58.5564 58.5291 58.4149 58.6557C58.2809 58.7748 58.1022 58.8344 57.8788 58.8344ZM62.6708 55.1929V54.2211C62.6708 53.4764 62.4996 52.9178 62.157 52.5455C61.8219 52.1657 61.3192 51.9758 60.649 51.9758C59.3011 51.9758 58.6272 52.7242 58.6272 54.2211V55.1929H62.6708Z" fill="white"/>
<path d="M32.2216 37.8814L32.5 37.9708L32.7784 37.8814C38.8856 35.9216 50.7243 27.2183 50.7243 8.0725V7.68389L50.4439 7.41489C48.1841 5.24738 41.5474 1.08879 32.5 1.08879C23.4526 1.08879 16.8159 5.24738 14.5562 7.41489L14.2757 7.68389V8.0725C14.2757 27.2183 26.1144 35.9216 32.2216 37.8814Z" fill="#252744" stroke="#F0F1F6" stroke-width="1.82243"/>
<path d="M18.6152 17.791C20.3197 14.5272 25.4911 7.99951 32.5409 7.99951C39.5908 7.99951 44.6171 14.5272 46.2491 17.791C44.6171 21.0549 39.5908 27.5825 32.5409 27.5825C25.4911 27.5825 20.3197 21.0549 18.6152 17.791Z" fill="#F0F1F6"/>
<path d="M20.6877 17.7016C22.13 14.9399 26.5057 9.4165 32.471 9.4165C38.4363 9.4165 42.6894 14.9399 44.0702 17.7016C42.6894 20.4633 38.4363 25.9868 32.471 25.9868C26.5057 25.9868 22.13 20.4633 20.6877 17.7016Z" fill="#252744"/>
<ellipse cx="32.2868" cy="17.7945" rx="4.78696" ry="4.87902" fill="#F0F1F6"/>
<ellipse cx="32.287" cy="17.7942" rx="2.76171" ry="2.85377" fill="#252744"/>
</svg>
